
        <svg xmlns="http://www.w3.org/2000/svg" xmlns:xlink="http://www.w3.org/1999/xlink" version="1.1" width="3228.4027601953308" 
        height="3240.0299449959352" viewBox="0 0 3228.4027601953308 3240.0299449959352">
			<g transform="scale(12.001497249796769) translate(10, 10)">
				<defs id="SvgjsDefs2022"><linearGradient id="SvgjsLinearGradient2031"><stop id="SvgjsStop2032" stop-color="#ef4136" offset="0"></stop><stop id="SvgjsStop2033" stop-color="#fbb040" offset="1"></stop></linearGradient><linearGradient id="SvgjsLinearGradient2034"><stop id="SvgjsStop2035" stop-color="#ef4136" offset="0"></stop><stop id="SvgjsStop2036" stop-color="#fbb040" offset="1"></stop></linearGradient><linearGradient id="SvgjsLinearGradient2037"><stop id="SvgjsStop2038" stop-color="#ef4136" offset="0"></stop><stop id="SvgjsStop2039" stop-color="#fbb040" offset="1"></stop></linearGradient></defs><g id="SvgjsG2023" featureKey="rootContainer" transform="matrix(1.3008773042904878,0,0,1.3008773042904878,7.000454684764883,4.000224395925916)" fill="#e73363"><path xmlns="http://www.w3.org/2000/svg" d="M17.914 148.907zM22.657 154.94a90.586 90.586 0 0 0 5.861 6.251c6.914 6.805 15.159 12.525 24.004 16.851 3.259 1.526 6.265 3.107 9.787 4.468.88.338 1.779.7 2.724 1.026.953.302 1.941.604 2.974.903 1.027.321 2.122.549 3.267.786 1.146.23 2.336.493 3.614.624a91.24 91.24 0 0 1-18.434-5.99 93.833 93.833 0 0 1-16.873-9.842c-10.548-7.727-19.57-17.648-26.16-28.989-.272-.339-.685-.985-1.18-1.808l-.796-1.348-.803-1.551c-.534-1.076-1.149-2.168-1.62-3.226a71.281 71.281 0 0 0-1.326-2.748c2.048 5.101 4.412 9.563 7.059 13.806a93.473 93.473 0 0 0 3.869 5.697c-.192-.259-.392-.511-.583-.771a95.012 95.012 0 0 0 4.6 5.841l.016.02zM18.039 149.078l-.125-.17.125.17zM1.335 106.042l-.483-3.875c.256 2.365.553 5.008 1.096 7.654l-.327-1.879a23.961 23.961 0 0 1-.286-1.9zM85.812 185.575c6.652.673 13.628.472 20.461-.609 6.837-1.077 13.524-2.987 19.741-5.449-11.45 4.503-23.602 6.506-35.49 6.171-1.591-.025-3.159 0-4.712-.113z"></path><path xmlns="http://www.w3.org/2000/svg" d="M46.426 171.967l-.259-.165c.087.055.172.111.259.165zM46.167 171.802zM43.653 170.135zM56.077 177.284A83.837 83.837 0 0 0 73.2 183.1c-9.688-2.21-18.805-6.109-26.774-11.133 3.06 1.947 6.277 3.749 9.651 5.317zM177.002 107.094c.098-1.58.296-3.238.346-4.027.594-5.071.77-9.401.745-13.745-.11-.783-.425-2.25-.55-3.918-.153-1.672-.378-3.309-.568-4.924-.289-1.601-.538-3.186-.854-4.74 2.275 11.617 2.237 23.279.144 34.282a94.97 94.97 0 0 1 .737-2.928z"></path><path xmlns="http://www.w3.org/2000/svg" d="M.887 83.482c.848-6.9 2.653-13.626 4.37-18.107l-.695 3.28c.429-.961 1.122-3.194 2.067-5.557l.682-1.802.753-1.747c.5-1.131.92-2.203 1.363-3.025-.303.771-.595 1.602-.947 2.436-.345.837-.732 1.687-1.101 2.542l1.514-3.409A111.863 111.863 0 0 0 4.954 69.8c-1.133 4.352-2.029 8.926-2.511 13.032-.14 1.024-.189 2.024-.28 2.978-.067.954-.183 1.864-.192 2.724-.042 1.719-.1 3.224-.071 4.428.105 2.409.25 3.61.459 2.939.411-1.333.403-8.188 1.837-16.767.767-4.276 1.868-8.966 3.362-13.561 1.483-4.599 3.427-9.058 5.44-12.992l-.592 1.292-.545 1.331-1.116 2.691-1.024 2.78-.521 1.402c-.153.476-.308.954-.461 1.434-1.32 3.807-2.307 7.816-3.167 11.857l-.559 3.052c-.205 1.014-.292 2.046-.444 3.067-.318 2.041-.434 4.097-.611 6.129-.199 4.074-.239 8.098.13 11.946-.015-.914-.03-1.726-.017-2.512l.115-2.355c.048-.809.039-1.667.115-2.65.07-.983.134-2.091.19-3.402.391-6.608 1.572-13.15 3.408-19.481 1.75-6.358 3.814-11.957 6.889-17.03l.801-1.526c.542-1.024.993-2.034 1.566-3.064.653-1.13 1.278-1.976 1.784-2.751.521-.767.963-1.441 1.469-2.095l3.682-5.082c.075-.009-.022.185-.2.473a28.962 28.962 0 0 1 1.959-2.49c.755-.875 1.488-1.803 2.109-2.569.146-.007.288-.011.623-.251 8.65-9.197 19.295-16.692 31.291-21.417l2.667-1.039 2.7-.899 1.343-.448 1.36-.38 2.71-.753c1.55-.373 3.12-.751 4.721-1.091l2.437-.426c.819-.141 1.642-.3 2.484-.378 1.674-.201 3.134-.625 3.921-.729 4.369-.249 8.73-.199 13.849.216.397.007 1.015.043 1.732.082.717.041 1.537.061 2.332.134.932.21 1.927.418 2.971.621 6.369.988 12.527 2.754 18.386 5.103l-.007-.028 2.244.894 2.29 1.058c1.571.684 3.11 1.559 4.7 2.383.798.407 1.554.904 2.338 1.354.77.474 1.576.894 2.32 1.412 1.508 1.002 3.037 1.961 4.446 3.032a99.912 99.912 0 0 1 6.6 5.198c.046.042.094.081.14.122l.042.038 1.457 1.322 1.394 1.391 1.395 1.392c.462.467.89.967 1.337 1.449-.216-.35-.208-.491-.2-.63-.689-.66-1.504-1.441-2.309-2.21 1.343 1.222 2.515 2.327 3.477 3.229.371.474.776.94 1.16 1.449l1.186 1.566 1.261 1.629 1.255 1.752c2.226 2.838 4.191 5.874 6.057 8.97.864 1.588 1.817 3.131 2.586 4.774l1.213 2.436 1.092 2.497c.314.533.192.022.231-.068 1.225 2.962 2.21 6.042 3.102 9.146a88.212 88.212 0 0 1 3.408 17.211c.225 1.378.321 2.772.52 4.153l-.123 2.924c-.001 1.103.057 2.206.01 3.311l-.128 3.326c-.016.75-.124 1.569-.187 2.459-.084.888-.128 1.846-.256 2.856l-.412 3.192c-.132 1.119-.387 2.269-.583 3.471a90.635 90.635 0 0 1-4.312 15.482c-.242.826-.427 1.486-.592 1.855-.627 1.501-1.296 2.954-1.942 4.385-.723 1.394-1.386 2.788-2.127 4.108a86.09 86.09 0 0 1-7.949 12.379c-.336.439-.649.885-.987 1.297l-.998 1.206c-.66.779-1.25 1.558-1.876 2.234-1.251 1.352-2.301 2.606-3.286 3.549-1.128 1.178-1.027 1.233-.246.665a35.07 35.07 0 0 0 1.608-1.262l2.122-1.914c.776-.677 1.519-1.441 2.235-2.161.708-.725 1.416-1.386 1.962-1.984 1.101-1.191 1.824-1.926 1.67-1.599-1.777 3.345-5.013 7.471-9.743 12.035-2.413 2.227-5.128 4.647-8.339 6.98-1.566 1.221-3.307 2.338-5.082 3.558-1.834 1.123-3.708 2.353-5.757 3.445-4.484 2.442 3.365-1.475 3.577-1.512a22.87 22.87 0 0 1-2.377 1.64c-1.478.786-2.943 1.597-4.474 2.273-.895.411-1.774.855-2.679 1.239l-2.729 1.122 1.444-.568c2.952-1.173 5.711-2.555 8.202-3.922-.936.566-1.96 1.221-3.082 1.812-1.203.622-2.448 1.302-3.697 1.909l-3.625 1.686c12.968-4.711 24.885-12.507 34.319-22.67 4.723-5.066 8.935-10.631 12.369-16.651a93.904 93.904 0 0 0 8.288-18.999c-3.154 9.93-8.071 19.052-13.981 26.765 10.744-14.507 17.15-32.293 17.999-50.636-.001 1.011-.101 2.018-.168 3.025-.083 1.007-.123 2.018-.241 3.022-.257 2.005-.441 4.021-.827 6.009-.624 4-1.636 7.931-2.782 11.815 2.262-7.021 3.613-14.424 4.145-21.869.554-7.451.092-14.947-1.057-22.211 1.974 9.622 2.301 20.524.619 31.298 1.182-6.949 1.482-14.112 1.028-21.214-.102-2.713-.422-5.407-.685-7.901-.377-2.476-.662-4.762-1.027-6.611 1.445 6.826 2.015 12.648 2.293 18.136-.267-11.977-2.748-24.112-7.62-35.511 2.659 6.191 4.842 12.851 6.175 19.698 1.34 6.84 1.897 13.838 1.58 20.57-.015-.788.018-1.575-.028-2.366l-.107-2.391c.287 10.85-1.384 21.604-4.696 31.717-1.662 5.056-3.715 9.969-6.2 14.644a95.521 95.521 0 0 1-8.56 13.316c3.673-4.29 7.551-10.354 10.646-17.015 3.081-6.675 5.368-13.894 6.941-20.199-2.314 11.322-6.907 22.494-13.571 32.471-6.646 9.985-15.351 18.764-25.423 25.502-10.06 6.759-21.474 11.437-33.187 13.748a94.608 94.608 0 0 1-17.657 1.809 94.462 94.462 0 0 1-17.361-1.515l3.005.571c1.002.19 2.018.295 3.026.445 2.016.324 4.055.446 6.087.633 4.073.229 8.168.306 12.25-.005 4.089-.217 8.152-.827 12.196-1.572 2.006-.456 4.036-.829 6.017-1.414.994-.278 2-.521 2.987-.83l2.955-.958c-1.492.462-3.062 1.074-4.739 1.523l-2.101.618a91.772 91.772 0 0 0 12.91-4.496 89.46 89.46 0 0 0 5.651-2.705 96.653 96.653 0 0 1-10.714 4.872 98.407 98.407 0 0 1-21.66 5.382c-1.11.176-2.122.231-3.029.326l-2.428.24c-1.429.113-2.484.164-3.222.245-1.477.147-1.687.284-1.099.397.587.113 1.971.203 3.673.251 1.697-.01 3.71-.101 5.541-.268 18.397-1.887 35.288-9.107 48.824-19.916 13.545-10.811 23.919-25.172 29.701-41.467.363-.946.642-1.922.944-2.89.293-.971.617-1.932.882-2.912.491-1.97 1.072-3.917 1.448-5.917l.619-2.985.487-3.012.241-1.507.172-1.517.342-3.034c.698-8.114.422-16.315-.812-24.363-.66-4.554-1.82-9.961-3.315-14.777l-1.15-3.484c-.4-1.107-.825-2.151-1.203-3.133l-.557-1.415-.571-1.271-.981-2.124c-3.134-6.359-7.072-12.424-11.682-18.065-4.605-5.643-9.896-10.868-15.861-15.418l-2.244-1.703-2.327-1.608-1.166-.806-1.203-.756-2.417-1.508c-3.295-1.904-6.67-3.739-10.228-5.261-3.521-1.598-7.206-2.895-10.957-4.055-1.895-.52-3.781-1.1-5.724-1.499-.968-.209-1.928-.463-2.907-.638l-2.944-.521C100.363.01 93.04-.285 85.724.265 78.412.83 71.069 2.218 64.028 4.614l-2.635.913c-.881.297-1.73.682-2.597 1.019-.858.359-1.735.673-2.577 1.069l-2.532 1.173c-.852.376-1.675.808-2.496 1.245l-2.469 1.297-2.402 1.412c-.8.472-1.606.933-2.372 1.458l-2.324 1.528c-.782.497-1.506 1.078-2.261 1.612-.741.554-1.51 1.07-2.226 1.654l-2.157 1.737c-.729.565-1.417 1.178-2.103 1.792l-2.063 1.83-1.971 1.919c-.656.639-1.319 1.271-1.93 1.951-5.031 5.298-9.451 11.078-13.066 17.194A99.518 99.518 0 0 0 5.18 64.379C.805 77.299-.45 90.402.134 102.237c-.126-4.872-.147-11.859.753-18.755zm141.132 90.446a96.807 96.807 0 0 0 8.765-6.389c-2.84 2.339-5.758 4.499-8.765 6.389zm40.217-54.282c-.299.901-.552 1.791-.882 2.641l-.957 2.523-.466 1.248-.513 1.231a108.54 108.54 0 0 0-.997 2.501 97.307 97.307 0 0 1-6.587 13.35c-2.521 4.275-5.443 8.281-8.565 12.04-1.542 1.899-3.222 3.66-4.874 5.421l-2.581 2.523c-.847.848-1.774 1.604-2.652 2.404-.736.64-1.478 1.266-2.225 1.882a90.696 90.696 0 0 0 7.896-7.312 89.808 89.808 0 0 1-11.689 10.188c-1.036.722-2.037 1.496-3.113 2.176l-3.247 2.069-3.43 1.949c-1.167.648-2.399 1.224-3.634 1.855a74.206 74.206 0 0 1 2.685-1.508c1.021-.567 2.092-1.237 3.138-1.85 1.054-.601 2.012-1.261 2.808-1.813.796-.552 1.42-1.01 1.745-1.306-.464.315-.936.617-1.406.924a92.477 92.477 0 0 0 1.507-1.015c-.021.023-.065.059-.101.091 10.932-7.466 20.245-17.277 27.223-28.462 7.009-11.175 11.57-23.781 13.46-36.601-.41 5.142-1.352 9.248-2.543 12.851zm-6.654-65.352zm-8.448-12.698a92.37 92.37 0 0 1 7.773 14.352c.25.549.486 1.106.719 1.664 4.963 12.154 7.221 25.192 6.89 38.036.084-4.25-.198-8.498-.669-12.71-.533-4.854-1.518-9.65-2.824-14.341-2.562-9.407-6.723-18.323-12.005-26.451.485.67.996 1.396 1.525 2.166a32.826 32.826 0 0 1 1.59 2.463l-.638-1.109-.689-1.079-1.378-2.156c-.938-1.424-1.955-2.796-2.934-4.192-1.062-1.334-2.069-2.712-3.174-4.011-.836-.953-1.637-1.938-2.485-2.879 2.992 3.155 5.801 6.54 8.299 10.247zM96.886 1.152c1.467.078 2.937.221 4.407.331 1.204.101 2.402.279 3.588.413.356.015.732.039 1.204.092.471.065 1.034.186 1.769.354 5.469.912 10.459 2.283 14.001 3.699 6.798 2.573 13.123 5.774 18.86 9.471 5.739 3.69 10.889 7.887 15.246 12.471 2.008 2.179 1.422 1.704.315.646l1.662 1.764c-.736-.734-1.459-1.478-2.206-2.196l-2.301-2.09c.56.49 1.918 1.663 2.845 2.522-7.389-7.539-16.026-13.799-25.375-18.404-9.356-4.603-19.431-7.446-29.502-8.581 1.618.18 2.412.22 3.168.24-1.085-.127-2.173-.301-3.274-.401-1.479-.097-2.955-.229-4.423-.301l-4.36-.103c1.444-.001 2.907.039 4.376.073z"></path><path xmlns="http://www.w3.org/2000/svg" d="M115.942 184.69l.426-.125c-.446.12-.885.252-1.334.366.304-.076.609-.15.908-.241zM160.424 146.151c4.235-5.587 7.977-12.263 10.366-18.014l-.029.006c-6.061 14.322-15.892 26.66-28.16 35.744a159.12 159.12 0 0 0 6.418-4.703c2.698-2.82 7.213-7.406 11.405-13.033zM35.35 162.846c7.172 6.412 15.821 11.992 25.448 15.751 3.754 1.413 7.585 2.651 11.503 3.523 1.944.502 3.929.812 5.899 1.181.987.175 1.987.272 2.979.412.994.129 1.986.275 2.987.333-4.519-.501-9.005-1.251-13.372-2.44-4.364-1.185-8.642-2.65-12.769-4.449a97.4 97.4 0 0 1-11.894-6.314c-3.786-2.408-7.376-5.097-10.781-7.997zM123.877 174.277l-2.219.871-2.266.756c-1.5.54-3.047.944-4.59 1.373 1.551-.39 3.111-.754 4.624-1.254l2.283-.698 2.23-.815c-.086-.044-.594.055-.062-.233zM97.683 179.965c-1.16.099-2.326.09-3.494.102-1.168.014-2.338.039-3.509-.038l1.576.148c.482.031.916.068 1.295.113 1.381-.118 2.752-.151 4.132-.325zM51.441 169.209c1.341.787 2.765 1.48 4.178 2.244.354.194.996.415 1.801.709-1.721-.739-3.37-1.655-5.046-2.505-.83-.441-1.629-.935-2.443-1.395-.812-.464-1.621-.927-2.389-1.445l.937.626.977.584 1.985 1.182z"></path></g><g id="SvgjsG2024" featureKey="symbolFeature-0" transform="matrix(1.199487789570676,0,0,1.199487789570676,-12.66160017435051,69.02327593947098)" fill="url(#SvgjsLinearGradient2031)"><g xmlns="http://www.w3.org/2000/svg"><path d="M44.671,14.987c-8.698,0-15.774,7.077-15.774,15.776c0,5.492,4.74,10.338,9.454,13.237l-0.005,3.506   c0,0.494,0.225,0.961,0.61,1.27l2.593,2.07l-1.023,1.428c-0.216,0.279-0.339,0.627-0.339,0.994c0,0.387,0.137,0.75,0.372,1.033   l1.173,1.639l-1.191,1.49c-0.472,0.592-0.472,1.434,0,2.025l1.15,1.439l-1.151,1.447c-0.471,0.594-0.471,1.434,0.001,2.024   l1.15,1.444l-1.132,1.371c-0.508,0.613-0.495,1.506,0.03,2.105l4.187,4.777c0.305,0.349,0.748,0.551,1.21,0.553l0.779,0.006   c0.006,0,0.008,0,0.012,0c0.439,0,0.861-0.18,1.168-0.495l2.535-2.623c0.623-0.646,0.605-1.675-0.039-2.298   c-0.646-0.622-1.674-0.607-2.297,0.038l-1.717,1.772l-2.483-2.834l1.077-1.304c0.059-0.071,0.08-0.155,0.125-0.233   c0.028-0.045,0.051-0.088,0.074-0.137c0.06-0.131,0.103-0.26,0.125-0.398c0.017-0.086,0.023-0.17,0.025-0.26   c0-0.101-0.006-0.193-0.023-0.291c-0.02-0.129-0.058-0.25-0.11-0.373c-0.025-0.057-0.051-0.108-0.083-0.162   c-0.042-0.073-0.061-0.155-0.115-0.227l-1.153-1.447l1.153-1.447c0.472-0.594,0.47-1.434-0.003-2.024l-1.147-1.44l1.147-1.438   c0.455-0.568,0.475-1.369,0.051-1.961l-1.274-1.777l1.274-1.781c0.504-0.702,0.37-1.676-0.307-2.215l-3.184-2.543l0.005-3.648   c0-0.586-0.312-1.126-0.823-1.416c-3.981-2.264-8.633-6.476-8.633-10.898c0-6.907,5.619-12.526,12.524-12.526   c6.905,0,12.523,5.619,12.523,12.526c0,4.41-4.666,8.628-8.661,10.898c-0.509,0.29-0.823,0.829-0.823,1.413v19.397   c0,0.896,0.729,1.625,1.625,1.625s1.625-0.729,1.625-1.625V44.002c4.729-2.907,9.484-7.757,9.484-13.238   C60.443,22.064,53.367,14.987,44.671,14.987z"></path></g></g><g id="SvgjsG2025" featureKey="nameFeature-0" transform="matrix(1.312435241303388,0,0,1.312435241303388,63.48882173345578,75.87589157583884)" fill="url(#SvgjsLinearGradient2034)"><path d="M4.1992 40 l0 -27.617 l3.8867 0 l0 27.617 l-3.8867 0 z M33.20373828125 20.273 c3.7109 0 6.3086 2.1875 6.3086 6.2305 l0 13.496 l-3.75 0 l0 -12.5 c0 -2.8516 -1.6797 -4.1016 -3.6133 -4.1016 c-2.2656 0 -4.0234 1.4453 -4.0234 4.8242 l0 11.777 l-3.8086 0 l0 -12.363 c0 -2.9297 -1.6602 -4.2383 -3.6719 -4.2383 c-2.207 0 -4.0234 1.4453 -4.0234 4.9609 l0 11.641 l-3.7305 0 l0 -19.336 l3.7305 0 l0 2.4609 c1.1523 -1.8164 3.0273 -2.8516 5.3516 -2.8516 c2.5195 0 4.5508 1.0742 5.5273 3.125 c1.2109 -2.0508 3.2227 -3.125 5.7031 -3.125 z M47.6182015625 40.37109 c-3.1836 0 -5.918 -1.5625 -5.918 -5.293 c0 -4.043 3.2031 -5.3711 7.3438 -6.0938 l3.0469 -0.52734 c1.2305 -0.23438 1.7578 -0.82031 1.7578 -1.7773 c0 -2.6563 -1.9922 -3.5938 -4.1016 -3.5938 c-2.2266 0 -4.0625 0.99609 -4.3555 3.5352 l-3.3789 -0.68359 c0.625 -3.8086 3.457 -5.625 7.9102 -5.625 c3.8867 0 7.5391 1.543 7.5391 6.7383 l0 7.832 c0 1.9922 0.56641 2.4805 1.9336 2.4805 l0.29297 0 l0 2.6367 l-1.8164 0 c-2.0313 0 -3.3594 -0.80078 -3.75 -2.5977 l-0.17578 0 c-1.543 2.1289 -3.9648 2.9688 -6.3281 2.9688 z M48.4775015625 37.3828 c3.2813 0 5.6445 -2.5 5.6445 -6.6016 l-5.0586 1.0352 c-2.4023 0.41016 -3.7109 1.2109 -3.7109 2.9688 c0 1.8359 1.3867 2.5977 3.125 2.5977 z M75.45058984375 20.664 l3.6133 0 l0 18.262 c0 6.7773 -3.6523 10.254 -9.5508 10.254 c-4.9609 0 -8.0078 -2.207 -9.5117 -5.9375 l3.125 -1.4844 c1.1133 2.8711 3.125 4.3555 6.25 4.3555 c3.9453 0 5.9375 -2.6172 5.9375 -6.9531 l0 -3.3789 c-1.1719 2.1484 -3.75 3.6523 -6.6406 3.6523 c-4.8242 0 -8.8281 -3.9453 -8.8281 -9.6094 s4.043 -9.5508 8.8672 -9.5508 c2.9492 0 5.5078 1.5234 6.6602 3.7891 z M69.53258984375 36.2695 c3.418 0 6.0742 -2.9492 6.0742 -6.4453 s-2.6367 -6.4453 -6.0742 -6.4453 c-3.3594 0 -6.0352 2.7344 -6.0352 6.4453 c0 3.6719 2.7148 6.4453 6.0352 6.4453 z M84.923790625 16.387 c-1.3281 0 -2.4609 -1.0938 -2.4609 -2.4414 s1.1328 -2.4219 2.4609 -2.4219 c1.3086 0 2.4219 1.0742 2.4219 2.4219 s-1.1133 2.4414 -2.4219 2.4414 z M83.009790625 40 l0 -19.336 l3.7695 0 l0 19.336 l-3.7695 0 z M100.25672265625 20.273 c4.082 0 6.7773 2.3633 6.7773 6.6992 l0 13.027 l-3.7695 0 l0 -12.188 c0 -3.1836 -1.8945 -4.4141 -4.082 -4.4141 c-2.5781 0 -4.6875 1.5625 -4.707 5.1758 l0 11.426 l-3.75 0 l0 -19.336 l3.75 0 l0 2.3828 c1.25 -1.7578 3.2813 -2.7734 5.7813 -2.7734 z M127.7570234375 29.961 l-0.058594 0.99609 l-14.98 0 c0.13672 4.2773 2.832 6.3477 6.0352 6.3477 c2.3047 0 4.2188 -1.25 5.1953 -3.3398 l3.3984 0.66406 c-1.3672 3.5938 -4.6289 5.7422 -8.5547 5.7422 c-5.7422 0 -9.7461 -3.7109 -9.7461 -10.039 s4.1016 -10.059 9.6289 -10.059 c5.2539 0 9.0625 3.1641 9.082 9.6875 z M118.6940234375 23.125 c-2.9883 0 -5.2344 1.6016 -5.8203 4.9805 l11.113 0 c-0.3125 -3.3594 -2.4414 -4.9805 -5.293 -4.9805 z"></path></g><g id="SvgjsG2026" featureKey="sloganFeature-0" transform="matrix(0.3930036777673644,0,0,0.3930036777673644,87.28614828701296,142.6396787380478)" fill="url(#SvgjsLinearGradient2037)"><path d="M6.8945 20.18555 c-2.8613 0 -5.0781 -1.6895 -5.0781 -4.8047 l0 -9.1895 l1.9434 0 l0 8.916 c0 2.2754 1.3672 3.3203 3.1348 3.3203 s3.1641 -1.0547 3.1641 -3.3203 l0 -8.916 l1.9434 0 l0 9.1895 c0 3.1152 -2.2266 4.8047 -5.1074 4.8047 z M25.224359375 6.191000000000001 l1.9336 0 l0 13.809 l-2.0996 0 l-7.2168 -10.957 l0 10.957 l-1.9238 0 l0 -13.809 l2.0801 0 l7.2266 10.908 l0 -10.908 z M33.3008125 18.2422 l4.7168 0 l0 1.7578 l-6.6602 0 l0 -13.809 l1.9434 0 l0 12.051 z M46.6015875 20.18555 c-3.916 0 -6.9043 -2.6953 -6.9043 -7.0996 c0 -4.3945 2.9883 -7.0801 6.9043 -7.0801 c3.8965 0 6.8945 2.6855 6.8945 7.0801 c0 4.4043 -2.998 7.0996 -6.8945 7.0996 z M46.6015875 18.3594 c2.7637 0 4.9512 -1.9141 4.9512 -5.2734 c0 -3.3301 -2.1875 -5.2441 -4.9512 -5.2441 c-2.7734 0 -4.9707 1.9141 -4.9707 5.2441 c0 3.3594 2.1973 5.2734 4.9707 5.2734 z M62.685571875 20.18555 c-3.916 0 -6.9043 -2.6855 -6.9043 -7.0996 c0 -4.3945 2.9883 -7.0801 6.9043 -7.0801 c2.793 0 5.1074 1.3867 6.1719 3.7598 l-1.7969 0.71289 c-0.80078 -1.6895 -2.4316 -2.6367 -4.375 -2.6367 c-2.7734 0 -4.9707 1.9141 -4.9707 5.2441 c0 3.3496 2.1973 5.2637 4.9707 5.2637 c1.9434 0 3.5742 -0.94727 4.375 -2.6367 l1.7969 0.72266 c-1.0645 2.3633 -3.3789 3.75 -6.1719 3.75 z M79.736203125 20 l-4.8438 -6.2988 l-1.1914 0 l0 6.2988 l-1.9434 0 l0 -13.809 l1.9434 0 l0 5.7715 l1.1719 0 l4.707 -5.7715 l2.3828 0 l-5.4102 6.582 l5.6738 7.2266 l-2.4902 0 z M84.81444375 20 l0 -13.809 l1.9434 0 l0 13.809 l-1.9434 0 z M100.2731875 6.191000000000001 l1.9336 0 l0 13.809 l-2.0996 0 l-7.2168 -10.957 l0 10.957 l-1.9238 0 l0 -13.809 l2.0801 0 l7.2266 10.908 l0 -10.908 z M112.285140625 20.18555 c-3.8672 0 -6.8359 -2.6465 -6.8359 -7.0508 c0 -4.4434 2.9883 -7.1289 6.9043 -7.1289 c2.5391 0 4.7168 1.1133 5.9082 3.2227 l-1.7188 0.91797 c-0.86914 -1.6211 -2.4219 -2.373 -4.1895 -2.373 c-2.793 0 -4.9512 1.8945 -4.9512 5.3223 c0 3.3789 2.1094 5.3418 5.0195 5.3418 c2.3438 0 4.1797 -1.3184 4.502 -3.9355 l-4.5117 0 l0 -1.6211 l6.3965 0 l0 7.1191 l-1.582 0 l0 -2.4805 c-0.9082 1.6895 -2.6172 2.666 -4.9414 2.666 z M134.892553125 6.191000000000001 l0 1.748 l-3.4961 0 l0 12.061 l-1.9238 0 l0 -12.061 l-3.5059 0 l0 -1.748 l8.9258 0 z M146.269921875 6.191000000000001 l1.9434 0 l0 13.809 l-1.9434 0 l0 -6.0547 l-6.7871 0 l0 6.0547 l-1.9629 0 l0 -13.809 l1.9629 0 l0 6.0254 l6.7871 0 l0 -6.0254 z M159.931665625 7.939 l-5.5273 0 l0 4.2969 l4.873 0 l0 1.7383 l-4.873 0 l0 4.2676 l5.5273 0 l0 1.7578 l-7.5098 0 l0 -13.809 l7.5098 0 l0 1.748 z M176.005859375 7.939 l-5.6055 0 l0 4.2871 l4.873 0 l0 1.748 l-4.873 0 l0 6.0254 l-1.9824 0 l0 -13.809 l7.5879 0 l0 1.748 z M183.662078125 20.18555 c-2.8613 0 -5.0781 -1.6895 -5.0781 -4.8047 l0 -9.1895 l1.9434 0 l0 8.916 c0 2.2754 1.3672 3.3203 3.1348 3.3203 s3.1641 -1.0547 3.1641 -3.3203 l0 -8.916 l1.9434 0 l0 9.1895 c0 3.1152 -2.2266 4.8047 -5.1074 4.8047 z M200.0390375 6.191000000000001 l0 1.748 l-3.4961 0 l0 12.061 l-1.9238 0 l0 -12.061 l-3.5059 0 l0 -1.748 l8.9258 0 z M207.46090625 20.18555 c-2.8613 0 -5.0781 -1.6895 -5.0781 -4.8047 l0 -9.1895 l1.9434 0 l0 8.916 c0 2.2754 1.3672 3.3203 3.1348 3.3203 s3.1641 -1.0547 3.1641 -3.3203 l0 -8.916 l1.9434 0 l0 9.1895 c0 3.1152 -2.2266 4.8047 -5.1074 4.8047 z M223.935565625 20 l-3.5742 -6.2109 l-1.9336 0 l0 6.2109 l-1.9434 0 l0 -13.809 l4.6484 0 c2.8906 0 4.209 1.7676 4.209 3.9355 c0 1.9238 -1.1328 3.2617 -3.0273 3.584 l3.8965 6.2891 l-2.2754 0 z M218.427765625 7.871 l0 4.4336 l2.4414 0 c1.7969 0 2.6074 -0.89844 2.6074 -2.207 c0 -1.2891 -0.81055 -2.2266 -2.6074 -2.2266 l-2.4414 0 z M236.552759375 7.939 l-5.5273 0 l0 4.2969 l4.873 0 l0 1.7383 l-4.873 0 l0 4.2676 l5.5273 0 l0 1.7578 l-7.5098 0 l0 -13.809 l7.5098 0 l0 1.748 z"></path></g>
			</g>
		</svg>
	